<?xml version="1.0" encoding="UTF-8"?>
<svg width="839px" height="173px" viewBox="0 0 839 173" version="1.1" xmlns="http://www.w3.org/2000/svg" xmlns:xlink="http://www.w3.org/1999/xlink">
    <!-- Generator: Sketch 52.5 (67469) - http://www.bohemiancoding.com/sketch -->
    <title>rasterized-logo</title>
    <desc>Created with Sketch.</desc>
    <g id="Page-1" stroke="none" stroke-width="1" fill="none" fill-rule="evenodd">
        <g id="rasterized-logo" fill="#191923">
            <path d="M209,173 L209,3 L245,3 L245,173 L209,173 Z M378.17338,171 L327.584939,103.749625 L314.562172,119.365817 L314.562172,171 L279,171 L279,3 L314.562172,3 L314.562172,78.0584708 L373.665499,3 L417.492119,3 L351.126095,81.8365817 L422,171 L378.17338,171 Z M437,171 L437,3 L473,3 L473,171 L437,171 Z M618.80737,171 L539.440536,58.1604198 L539.440536,171 L504,171 L504,3 L540.438861,3 L617.559464,111.809595 L617.559464,3 L653,3 L653,171 L618.80737,171 Z M679,86.3748191 C679,33.5484805 719.062598,0 767.888889,0 C802.442879,0 824.226917,16.7742402 836.99687,36.552822 L807.450704,52.5759768 C799.688576,40.8089725 785.416275,31.5455861 767.888889,31.5455861 C737.591549,31.5455861 715.557121,54.829233 715.557121,86.3748191 C715.557121,117.920405 737.591549,141.204052 767.888889,141.204052 C783.162754,141.204052 796.683881,134.945007 803.945227,128.435601 L803.945227,108.156295 L759.375587,108.156295 L759.375587,77.6121563 L839,77.6121563 L839,141.454414 C821.973396,160.48191 798.186228,173 767.888889,173 C719.062598,173 679,138.950796 679,86.3748191 Z" id="IKING"></path>
            <polygon id="Path" points="0 3 186.615215 3 93.3076074 173"></polygon>
        </g>
    </g>
</svg>